<svg width="22" height="21" viewBox="0 0 22 21" fill="none" xmlns="http://www.w3.org/2000/svg">
<mask id="stripemask" mask-type="alpha" maskUnits="userSpaceOnUse" x="5" y="1" width="13" height="18">
<path d="M10.1778 6.43408C10.1778 5.65022 10.8452 5.34794 11.9144 5.34794C13.4717 5.34794 15.4488 5.81543 17.0061 6.63791V1.91737C15.3089 1.25306 13.6152 1 11.9181 1C7.7665 1 5 3.12298 5 6.67305C5 12.2232 12.7792 11.3234 12.7792 13.717C12.7792 14.645 11.9575 14.9437 10.8165 14.9437C9.12287 14.9437 6.93403 14.2583 5.21527 13.3444V17.8611C7.11702 18.6625 9.04745 19 10.8129 19C15.0684 19 18 17.2074 18 13.6011C18 7.6186 10.1778 8.69066 10.1778 6.43408Z" fill="black"/>
</mask>
<g mask="url(#stripemask)">
<rect width="22" height="21" fill="#242748"/>
</g>
</svg>
